#!OML:ASF F:\twosubjects\two\wednesday\Session 1\rory1.ASF
:FULLY-SPECIFIED
:DEGREES
51
root 9.2994 18.1465 -5.90645 5.73473 -16.283 0.898247
lowerback 0.820276 -0.420331 -5.61764
upperback 0.778843 -0.590132 0.252378
thorax 0.401403 -0.323492 3.41261
lowerneck -17.2202 0.195248 -1.22155
upperneck 13.2998 0.888494 -1.90749
head 6.8951 0.186734 -0.325599
rclavicle 5.35476e-014 9.54166e-015
rhumerus 35.133 33.9194 -79.2508
rradius 47.4521
rwrist -4.91442
rhand -35.0132 31.7508
rfingers 7.12502
rthumb -8.15752 1.92828
lclavicle 5.35476e-014 9.54166e-015
lhumerus 41.4549 -3.63645 74.2939
lradius 33.2497
lwrist 14.4046
lhand -27.2785 29.0227
lfingers 7.12502
lthumb -0.689057 59.0013
rfemur -20.18 12.3614 14.799
rtibia 32.9657
rfoot -15.2368 -14.3019
rtoes 0.591768
lfemur -18.823 -4.0488 -16.5774
ltibia 33.8875
lfoot -22.5271 10.6831
ltoes -9.74966
52
root 9.30255 18.148 -5.90342 5.91034 -16.6082 0.855859
lowerback 0.674046 -0.363163 -5.60182
upperback 0.922199 -0.500717 0.338829
thorax 0.622887 -0.288371 3.49106
lowerneck -17.6079 0.233661 -1.20923
upperneck 13.056 0.97825 -2.1327
head 6.88328 0.21046 -0.390785
rclavicle -5.05162e-014 4.37326e-015
rhumerus 36.3918 34.1077 -78.2216
rradius 46.8963
rwrist -6.66951
rhand -34.6467 31.7143
rfingers 7.12502
rthumb -7.80377 1.87834
lclavicle -5.05162e-014 4.37326e-015
lhumerus 41.5627 -2.6382 75.9762
lradius 33.332
lwrist 14.1955
lhand -27.9799 28.9639
lfingers 7.12502
lthumb -1.36652 58.9393
rfemur -20.4193 12.4848 14.7959
rtibia 32.954
rfoot -14.9843 -14.2768
rtoes -0.0345122
lfemur -18.9195 -4.09874 -16.5594
ltibia 33.8812
lfoot -22.799 10.8949
ltoes -9.10358
53
root 9.29984 18.1536 -5.88872 6.04506 -16.9197 0.904688
lowerback 0.617388 -0.346251 -5.60252
upperback 0.905453 -0.474943 0.301999
thorax 0.634464 -0.275314 3.45308
lowerneck -17.7483 0.333972 -1.00236
upperneck 12.8275 1.09828 -2.36455
head 6.83589 0.259415 -0.486267
rclavicle 2.95692e-015 -5.56597e-015
rhumerus 37.6477 34.8803 -76.8514
rradius 46.592
rwrist -8.209
rhand -35.8041 30.9078
rfingers 7.12502
rthumb -8.9208 1.1164
lclavicle 2.95692e-015 -5.56597e-015
lhumerus 41.3933 -1.54515 77.5255
lradius 33.4148
lwrist 13.0786
lhand -28.6895 28.185
lfingers 7.12502
lthumb -2.05181 58.1549
rfemur -20.5751 12.627 14.6963
rtibia 32.9211
rfoot -14.9497 -14.228
rtoes 0.0206531
lfemur -18.9913 -4.05805 -16.6359
ltibia 33.8983
lfoot -22.9872 11.0966
ltoes -9.11561
54
root 9.29514 18.1553 -5.87887 6.27091 -17.1942 0.70786
lowerback 0.675194 -0.357004 -5.4033
upperback 0.849881 -0.494027 0.339351
thorax 0.544963 -0.280064 3.38031
lowerneck -18.0291 0.432118 -0.983262
upperneck 12.7392 1.22532 -2.33981
head 6.85499 0.322871 -0.467201
rclavicle 5.20319e-014 -1.11319e-014
rhumerus 38.9999 35.6531 -75.3626
rradius 46.2945
rwrist -9.83614
rhand -36.2556 30.9358
rfingers 7.12502
rthumb -9.35647 1.16344
lclavicle 5.20319e-014 -1.11319e-014
lhumerus 41.2602 -0.909712 78.022
lradius 33.4628
lwrist 11.1592
lhand -29.0468 27.4356
lfingers 7.12502
lthumb -2.3969 57.4019
rfemur -20.7306 12.8561 14.8655
rtibia 32.8962
rfoot -14.9255 -14.273
rtoes 0.693618
lfemur -19.1122 -3.93917 -16.4177
ltibia 33.9059
lfoot -23.0691 11.1968
ltoes -8.80892
55
root 9.29174 18.1534 -5.87617 6.39311 -17.4784 0.668766
lowerback 1.04838 -0.250308 -5.2454
upperback 0.658238 -0.378569 0.254001
thorax 0.124908 -0.206202 3.20623
lowerneck -18.1862 0.381083 -1.09791
upperneck 12.8281 1.15041 -2.09837
head 6.90704 0.301269 -0.378317
rclavicle -6.04554e-014 -1.76918e-014
rhumerus 38.5615 34.9872 -76.383
rradius 45.6914
rwrist -9.84702
rhand -36.1224 32.0565
rfingers 7.12502
rthumb -9.2279 2.27846
lclavicle -6.04554e-014 -1.76918e-014
lhumerus 40.7925 -2.05707 77.0712
lradius 34.2649
lwrist 12.7735
lhand -31.9268 26.7265
lfingers 7.12502
lthumb -5.17808 56.6433
rfemur -20.8465 12.9748 14.8898
rtibia 32.8713
rfoot -14.8783 -14.2449
rtoes 0.164235
lfemur -19.1643 -3.82748 -16.3795
ltibia 33.9053
lfoot -23.0677 11.3022
ltoes -8.80684
56
root 9.29329 18.155 -5.87139 6.50199 -17.8114 0.683099
lowerback 1.50971 -0.0155936 -4.98982
upperback 0.352271 -0.0985437 0.117843
thorax -0.476107 -0.0445126 2.92106
lowerneck -17.9604 0.163275 -1.3595
upperneck 12.7761 0.874681 -1.84968
head 6.84827 0.1807 -0.285491
rclavicle 8.67198e-015 -1.19271e-015
rhumerus 35.4683 32.1422 -81.2139
rradius 44.8273
rwrist -6.66557
rhand -35.6009 33.9421
rfingers 7.12502
rthumb -8.72464 4.14241
lclavicle 8.67198e-015 -1.19271e-015
lhumerus 40.1247 -2.83744 77.1918
lradius 34.9585
lwrist 12.4165
lhand -33.7357 26.2328
lfingers 7.12502
lthumb -6.92443 56.0995
rfemur -21.0233 12.9984 14.8317
rtibia 32.8668
rfoot -14.9551 -13.9969
rtoes -0.171822
lfemur -19.1934 -3.89267 -16.4147
ltibia 33.8805
lfoot -23.0915 11.5311
ltoes -8.58514
57
root 9.29544 18.1585 -5.86224 6.72853 -18.0242 0.570158
lowerback 1.59844 0.106932 -4.6934
upperback 0.236075 0.0614483 0.0913509
thorax -0.659116 0.0414772 2.72422
lowerneck -17.9442 0.0423732 -1.44559
upperneck 12.662 0.738064 -1.89821
head 6.80822 0.107774 -0.302172
rclavicle -3.65267e-014 3.10104e-014
rhumerus 35.4737 31.5994 -81.6102
rradius 44.5817
rwrist -7.03626
rhand -36.1043 34.375
rfingers 7.12502
rthumb -9.21046 4.59614
lclavicle -3.65267e-014 3.10104e-014
lhumerus 39.5352 -3.5815 76.9828
lradius 35.9267
lwrist 11.4492
lhand -34.7871 27.3112
lfingers 7.12502
lthumb -7.93932 57.1421
rfemur -21.2764 13.0514 14.8896
rtibia 32.8995
rfoot -14.8988 -13.9097
rtoes -0.476211
lfemur -19.3125 -4.05448 -16.2963
ltibia 33.8108
lfoot -23.1326 11.838
ltoes -8.4005
58
root 9.29455 18.1615 -5.84417 6.82214 -17.9966 0.702207
lowerback 1.41866 0.0567057 -4.69669
upperback 0.325802 0.00600718 0.0148754
thorax -0.461478 0.00752858 2.64843
lowerneck -18.0617 0.0652794 -1.16376
upperneck 12.4848 0.740843 -2.16813
head 6.77249 0.099947 -0.434954
rclavicle 1.45113e-014 -9.54166e-015
rhumerus 35.6808 31.1718 -82.081
rradius 44.3244
rwrist -6.51009
rhand -36.9091 34.4533
rfingers 7.12502
rthumb -9.98691 4.71022
lclavicle 1.45113e-014 -9.54166e-015
lhumerus 39.0296 -4.15297 76.6819
lradius 37.0355
lwrist 10.3712
lhand -35.4229 28.9611
lfingers 7.12502
lthumb -8.55287 58.7678
rfemur -21.3668 12.8148 14.7546
rtibia 32.9277
rfoot -14.7716 -13.9468
rtoes -1.69039
lfemur -19.3467 -4.27191 -16.4447
ltibia 33.7329
lfoot -23.2142 12.0371
ltoes -8.50635
59
root 9.29218 18.1636 -5.82994 6.85799 -17.9654 0.843898
lowerback 1.36814 -0.00159352 -4.75409
upperback 0.393532 -0.0684104 -0.0670053
thorax -0.357532 -0.0332826 2.59756
lowerneck -18.0714 0.119614 -0.857344
upperneck 12.1931 0.754898 -2.32106
head 6.68101 0.111358 -0.532008
rclavicle -8.72168e-015 1.98785e-015
rhumerus 35.7361 30.7095 -82.7408
rradius 43.8693
rwrist -5.61868
rhand -37.986 35.0955
rfingers 7.12502
rthumb -11.0258 5.40508
lclavicle -8.72168e-015 1.98785e-015
lhumerus 38.5061 -4.13744 77.2019
lradius 37.9906
lwrist 8.81276
lhand -35.8557 29.5189
lfingers 7.12502
lthumb -8.97054 59.3082
rfemur -21.3933 12.4793 14.6336
rtibia 32.9257
rfoot -14.6639 -13.8733
rtoes -2.32923
lfemur -19.3323 -4.57232 -16.5931
ltibia 33.6786
lfoot -23.382 12.1908
ltoes -8.07966
60
root 9.28933 18.163 -5.82367 6.83788 -18.0603 0.833696
lowerback 1.50002 0.0102655 -4.69635
upperback 0.485262 -0.0566771 -0.0716687
thorax -0.338228 -0.0295103 2.56027
lowerneck -18.126 0.169988 -0.855343
upperneck 11.9149 0.807201 -2.26269
head 6.59998 0.144866 -0.50726
rclavicle -5.47652e-014 -1.88845e-014
rhumerus 35.2902 29.5847 -84.3361
rradius 43.3496
rwrist -4.52345
rhand -38.0646 36.2226
rfingers 7.12502
rthumb -11.1015 6.53624
lclavicle -5.47652e-014 -1.88845e-014
lhumerus 38.0571 -4.6016 77.0822
lradius 39.1981
lwrist 8.36883
lhand -36.6599 30.5197
lfingers 7.12502
lthumb -9.74654 60.2741
rfemur -21.3333 12.5154 14.6538
rtibia 32.9145
rfoot -14.6244 -13.8464
rtoes -2.50905
lfemur -19.2325 -4.76456 -16.5803
ltibia 33.6363
lfoot -23.5415 12.3377
ltoes -7.61868
